<svg xmlns="http://www.w3.org/2000/svg" viewBox="5 -10 627 326">
  <defs>
    <style>
      @import url('https://fonts.googleapis.com/css2?family=Inter:wght@100..900');

      .am-diagram-bg {
        fill: #ffffff;
      }

      .am-diagram-cloud-group {
        fill: #ffffff;
        stroke: #18181b;
      }

      .am-diagram-cloud-group-box {
        fill-rule: evenodd;
        fill: #18181b;
      }

      .am-diagram-cloud-group-logo {
        fill-rule: evenodd;
        fill: #fafafa;
      }

      .am-diagram-cloud-group-title {
        font-family: Inter;
        font-weight: 900;
        font-size: 12px;
        fill: #18181b;
      }

      .am-diagram-arrow-line, .am-diagram-arrow-cap {
        fill: none;
        stroke-miterlimit: 8;
        stroke: #71717a;
      }

      .am-diagram-arrow-cap {
        stroke-linecap: round;
      }

      .am-diagram-ingress-bg {
        fill: #ffffff;
        stroke-miterlimit: 8;
        stroke: #71717a;
      }

      .am-diagram-ingress-icon {
        fill-rule: evenodd;
        fill: #3f3f46;
      }

      .am-diagram-icon-label {
        font-family: Inter;
        font-size: 10px;
        fill: currentColor;
      }

      .am-diagram-aws-generic {
        fill: #3f3f46;
        fill-rule: evenodd;
      }

      .am-diagram-aws-storage {
        fill: #3f8624;
        fill-rule: evenodd;
      }

      .aws-diagram-aws-networking {
        fill: #4d27aa;
        fill-rule: evenodd;
      }

      .aws-diagram-aws-appint {
        fill: #b0084d;
        fill-rule: evenodd;
      }

      .aws-diagram-aws-compute {
        fill: #d45b07;
        fill-rule: evenodd;
      }

      .aws-diagram-aws-security {
        fill: #bf0816;
        fill-rule: evenodd;
      }
    </style>
  </defs>
  <rect class="am-diagram-bg" x="5" y="-10" width="627" height="326"></rect>
  <g>
    <polygon class="am-diagram-cloud-group" points="132 0.5 606 0.5 606 305.5 132 305.5 132 0.5 132 0.5"/>
    <polygon class="am-diagram-cloud-group-box" points="132 0.5 161.883 0.5 161.883 30.5 132 30.5 132 0.5 132 0.5"/>
    <path class="am-diagram-cloud-group-logo" d="M144.02341,18.43122c.27073.35062-.3,1.79335-.55576,2.43912-.078.19593.08851.27284.2625.12563a3.821,3.821,0,0,0,1.1955-3.26137,3.75968,3.75968,0,0,0-3.42222.32282c-.18674.13237-.15449.31472.05176.29079.681-.08363,2.19822-.26686,2.46822.083ZM143.3919,19.933c.3885-.28256.05551-.70348-.34049-.5382a21.50846,21.50846,0,0,1-8.0999,1.62433,21.69381,21.69381,0,0,1-10.61686-2.76206c-.264-.15107-.45974.11579-.23924.30948A15.89888,15.89888,0,0,0,134.70552,22.535a15.6025,15.6025,0,0,0,8.68638-2.602Zm-1.608-3.89829a4.9264,4.9264,0,0,1-1.09424-.12041,3.22024,3.22024,0,0,1-.81973-.27882.47994.47994,0,0,1-.21826-.19282.48608.48608,0,0,1-.04348-.19432v-.35061c0-.14509.05473-.219.162-.219a.41743.41743,0,0,1,.12975.02468c.04576.0172.10575.041.18075.07316a3.79159,3.79159,0,0,0,.783.24218,4.31811,4.31811,0,0,0,.84449.08451,1.95057,1.95057,0,0,0,1.038-.23021.72507.72507,0,0,0,.36674-.65263.65929.65929,0,0,0-.19274-.4851,1.84406,1.84406,0,0,0-.714-.36258l-1.03122-.3146a2.213,2.213,0,0,1-1.13775-.70123,1.61594,1.61594,0,0,1-.354-1.00686,1.4957,1.4957,0,0,1,.1935-.76767,1.86235,1.86235,0,0,1,.507-.56886,2.35394,2.35394,0,0,1,.74173-.35735,3.24708,3.24708,0,0,1,.894-.12115,3.895,3.895,0,0,1,.48.03066c.16125.01945.31424.04637.459.07853.14476.03365.27975.06955.4035.10918a2.02235,2.02235,0,0,1,.29925.121.6885.6885,0,0,1,.21075.16964.38035.38035,0,0,1,.06225.23033v.32582c0,.14583-.054.21762-.16275.21762a.75823.75823,0,0,1-.273-.08376,3.35747,3.35747,0,0,0-1.36573-.26611,1.91544,1.91544,0,0,0-.94574.19282.66182.66182,0,0,0-.336.61823.64581.64581,0,0,0,.21223.48959,2.13863,2.13863,0,0,0,.783.382l1.00648.31547a2.16994,2.16994,0,0,1,1.09948.66372,1.53293,1.53293,0,0,1,.33077.96809,1.7012,1.7012,0,0,1-.1875.80581,1.83564,1.83564,0,0,1-.51674.61074,2.33,2.33,0,0,1-.78825.38714,3.5807,3.5807,0,0,1-1.00649.13312Zm-9.12364-.18248a.45033.45033,0,0,1-.27375-.06494.53979.53979,0,0,1-.14924-.27284l-1.66647-5.35a1.30106,1.30106,0,0,1-.0615-.27733.1524.1524,0,0,1,.17474-.16964h.69525a.44879.44879,0,0,1,.2805.06719.562.562,0,0,1,.14174.27209l1.19323,4.57485,1.10774-4.57485a.35166.35166,0,0,1,.42075-.33928h.57374a.35269.35269,0,0,1,.4215.33928l1.11973,4.63542,1.23-4.63542a.55536.55536,0,0,1,.1425-.27209.44621.44621,0,0,1,.27974-.06719h.6585a.15211.15211,0,0,1,.17474.16964.6827.6827,0,0,1-.012.10769,1.43086,1.43086,0,0,1-.051.16964l-1.71448,5.35a.53977.53977,0,0,1-.15.27284.44773.44773,0,0,1-.273.06494h-.60976a.449.449,0,0,1-.285-.07017.52749.52749,0,0,1-.1365-.27882l-1.107-4.4552-1.09274,4.4552a.52753.52753,0,0,1-.13725.27882.45143.45143,0,0,1-.28574.07017Zm-5.70592-.749a2.35266,2.35266,0,0,0,.73424-.127,1.55091,1.55091,0,0,0,.67049-.4426,1.07664,1.07664,0,0,0,.243-.44173,2.29937,2.29937,0,0,0,.06676-.59878v-.29a6.10339,6.10339,0,0,0-.65175-.11517,5.545,5.545,0,0,0-.66524-.0425,1.66656,1.66656,0,0,0-1.056.27882,1.11874,1.11874,0,0,0-.087,1.53085,1.03884,1.03884,0,0,0,.74549.24816Zm2.88446-1.05247a1.91292,1.91292,0,0,0,.08025.61672,3.24573,3.24573,0,0,0,.23025.49633.317.317,0,0,1,.0495.15617.26235.26235,0,0,1-.1365.20641l-.44774.29154a.36858.36858,0,0,1-.186.06045.29916.29916,0,0,1-.2115-.09635,1.55818,1.55818,0,0,1-.25424-.32145,4.61545,4.61545,0,0,1-.21824-.40671,2.654,2.654,0,0,1-2.088.95688,1.97164,1.97164,0,0,1-1.41822-.49633,1.9202,1.9202,0,0,1,.126-2.75308,2.63113,2.63113,0,0,1,1.73922-.53895,5.54359,5.54359,0,0,1,.75223.05447c.26026.03589.5325.08749.813.15181v-.50754a1.495,1.495,0,0,0-.3345-1.10856,1.65342,1.65342,0,0,0-1.155-.32,3.37678,3.37678,0,0,0-.76573.08974,5.62332,5.62332,0,0,0-.76425.23545,2.015,2.015,0,0,1-.24825.09111.5258.5258,0,0,1-.11175.018c-.099,0-.15-.07167-.15-.21825v-.3379a.43645.43645,0,0,1,.051-.24143.49282.49282,0,0,1,.19875-.14571,4.62632,4.62632,0,0,1,.894-.31472,4.45779,4.45779,0,0,1,1.107-.13386,2.62635,2.62635,0,0,1,1.85772.56288,2.24805,2.24805,0,0,1,.591,1.70061v2.25228Z" transform="translate(12.5)"/>
    <text class="am-diagram-cloud-group-title" transform="translate(170 20)">AWS Cloud</text>
  </g>
  <g>
    <polyline class="am-diagram-arrow-line" points="210 240.5 152 240.5 152 92.5 165.192 92.5 210 92.5"/>
    <line class="am-diagram-arrow-line" x1="82" y1="166.5" x2="152" y2="166.5"/>
    <polyline class="am-diagram-arrow-cap" points="206 89 210 92.5 206 96"/>
    <polyline class="am-diagram-arrow-cap" points="206 237 210 240.5 206 244"/>
    <circle class="am-diagram-ingress-bg" cx="132" cy="166.5" r="12"/>
    <path class="am-diagram-ingress-icon" d="M123.34391,168.67256l-1.30577,1.30191v-4.21235h-.72685v4.17211l-1.25053-1.26747-.51824.50851,1.888,1.91335a.36522.36522,0,0,0,.25766.10838h.00146a.36447.36447,0,0,0,.25693-.1062l1.91124-1.90574Zm-4.44828-.74845.51388-.5125-1.91087-1.90574a.36233.36233,0,0,0-.25694-.1062h-.00146a.36309.36309,0,0,0-.25766.10838l-1.88834,1.913.51824.50814,1.25053-1.26674V171.487h.72685v-4.86511Zm-.733,3.56937,2.5683.00253.00073-.72489-2.56831-.00253ZM127.5,168.43371a2.92179,2.92179,0,0,1-.81515,2.16561A3.509,3.509,0,0,1,124.4,171.5h-.00436l-1.731-.00181.00072-.72489,1.7328.00181a2.80932,2.80932,0,0,0,1.77858-.69372,2.2316,2.2316,0,0,0,.59638-1.64768,1.90224,1.90224,0,0,0-1.13751-1.69262,3.5288,3.5288,0,0,0-1.228-.46611.36245.36245,0,0,1-.30236-.4005,1.52291,1.52291,0,0,0-.98233-1.4603,1.22353,1.22353,0,0,0-1.32467.43639.36351.36351,0,0,1-.62763-.096,3.96068,3.96068,0,0,0-.96489-1.50632,3.55919,3.55919,0,0,0-3.90714-.739,3.4499,3.4499,0,0,0-2.03262,3.00214,3.207,3.207,0,0,0,.0258.40666.36285.36285,0,0,1-.25475.39253.35652.35652,0,0,1-.04216.01015,2.13909,2.13909,0,0,0-1.76805,2.17395,2.34717,2.34717,0,0,0,1.2022,2.0982,1.22263,1.22263,0,0,0,.62545.1718l2.23577.00217-.00073.72489-2.2354-.00217a1.94871,1.94871,0,0,1-.99941-.2751A3.08367,3.08367,0,0,1,111.5,168.4946a2.82538,2.82538,0,0,1,2.04352-2.79772c-.00291-.06161-.00436-.12359-.00436-.18557a4.16147,4.16147,0,0,1,2.48762-3.67411,4.29714,4.29714,0,0,1,4.6816.88726,4.49785,4.49785,0,0,1,.93,1.28161,1.93081,1.93081,0,0,1,1.69536-.28561,2.18328,2.18328,0,0,1,1.47295,1.897,4.41168,4.41168,0,0,1,1.20874.50562A2.64272,2.64272,0,0,1,127.5,168.43371Z" transform="translate(12.5, -1)"/>
  </g>
  <g>
    <polyline class="am-diagram-arrow-line" points="372 146.5 314 146.5 314 38.5 327.192 38.5 372 38.5"/>
    <line class="am-diagram-arrow-line" x1="274" y1="87.5" x2="314" y2="87.5"/>
    <polyline class="am-diagram-arrow-cap" points="368 35 372 38.5 368 42"/>
    <polyline class="am-diagram-arrow-cap" points="368 143 372 146.5 368 150"/>
  </g>
  <g>
    <line class="am-diagram-arrow-line" x1="434" y1="146.5" x2="532" y2="146.50002"/>
    <polyline class="am-diagram-arrow-cap" points="528 143 532 146.5 528 150"/>
  </g>
  <g>
    <line class="am-diagram-arrow-line" x1="274" y1="97.5" x2="304" y2="97.5"/>
    <line class="am-diagram-arrow-line" x1="304" y1="236" x2="304.00001" y2="97"/>
    <line class="am-diagram-arrow-line" x1="304" y1="235.5" x2="372" y2="235.5"/>
    <polyline class="am-diagram-arrow-cap" points="368 232 372 235.5 368 239"/>
  </g>
  <g>
    <line class="am-diagram-arrow-line" x1="274" y1="245.5" x2="372" y2="245.50002"/>
    <polyline class="am-diagram-arrow-cap" points="278 249 274 245.5 278 242"/>
  </g>
  <g>
    <text class="am-diagram-icon-label" transform="translate(33.7 203.66)">Visitors</text>
    <path class="am-diagram-aws-generic" d="M42.17624,152.22078a5.37982,5.37982,0,1,1,5.38,5.286,5.33918,5.33918,0,0,1-5.38-5.286ZM53.663,158.834a11.71089,11.71089,0,0,0-2.035-1.001,7.26026,7.26026,0,0,0,3.269-6.047,7.37959,7.37959,0,0,0-14.758,0,7.26073,7.26073,0,0,0,3.256,6.039,11.8962,11.8962,0,0,0-3.546,2.1l1.303,1.518a9.67473,9.67473,0,0,1,11.457-.91,10.54612,10.54612,0,0,1,4.844,7.967H47.5v2h11a1.00819,1.00819,0,0,0,1-1.0217,12.597,12.597,0,0,0-5.837-10.6443Zm-31.48673-6.61322a5.37982,5.37982,0,1,1,5.38,5.286,5.33918,5.33918,0,0,1-5.38-5.286ZM27.5,168.5H17.546a10.18513,10.18513,0,0,1,9.954-9.428,9.68161,9.68161,0,0,1,5.109,1.461,10.19389,10.19389,0,0,1,1.24.91l1.303-1.517a11.97519,11.97519,0,0,0-1.489-1.092,11.71089,11.71089,0,0,0-2.035-1.001,7.26026,7.26026,0,0,0,3.269-6.047,7.37959,7.37959,0,0,0-14.758,0,7.25759,7.25759,0,0,0,3.268,6.046A12.421,12.421,0,0,0,15.5,169.48092a1.00762,1.00762,0,0,0,1,1.01908h11Zm.08327,18a10.18513,10.18513,0,0,1,9.954-9.428,9.68161,9.68161,0,0,1,5.109,1.461,10.54612,10.54612,0,0,1,4.844,7.967Zm4.593-16.27922a5.37982,5.37982,0,1,1,5.38,5.286,5.33918,5.33918,0,0,1-5.38-5.286Zm11.524,6.61322a11.71089,11.71089,0,0,0-2.035-1.001,7.26026,7.26026,0,0,0,3.269-6.047,7.37959,7.37959,0,0,0-14.758,0,7.25759,7.25759,0,0,0,3.268,6.046,12.421,12.421,0,0,0-7.907,11.64893,1.00759,1.00759,0,0,0,1,1.01907h22a1.00819,1.00819,0,0,0,1-1.0217,12.597,12.597,0,0,0-5.837-10.6443Z" transform="translate(12.5)"/>
  </g>
  <g>
    <text class="am-diagram-icon-label" transform="translate(359.48 75.66)"><tspan x="0" y="0">Amazon S3 Bucket</tspan> <tspan x="7.5" y="12">(Static Website)</tspan></text>
    <path class="am-diagram-aws-storage" d="M405.75177,40.62479l.22139-1.6515a7.70063,7.70063,0,0,1,2.46623,1.96536,6.29163,6.29163,0,0,1-2.68762-.31386ZM388.173,34.58733a.09026.09026,0,0,1,.08975-.09025c.015,0,.02394.009.0369.015l-.06881.14039a.06674.06674,0,0,1-.05784-.06518Zm13.60865,20.65533a1.01429,1.01429,0,0,0-.009.13437c0,.15241-.376.738-2.04837,1.40282a18.36433,18.36433,0,0,1-2.61882.79116,40.39847,40.39847,0,0,1-8.84372.92352c-8.40494,0-13.50793-2.1649-13.50793-3.1175a1.01429,1.01429,0,0,0-.009-.13437L370.93332,26.781c.24433.14339.50861.28076.78385.41413.06881.03409.1456.06618.2174.09927q.371.17146.77189.33291c.1077.04311.2164.08523.3261.12734.28023.10629.56944.20757.86862.30584.07978.02607.15657.05415.23834.08022q.57144.18049,1.18176.34393c.10272.02708.20943.05215.31513.07922q.47869.12334.98031.23464c.13264.03008.26428.05916.39891.08824q.55647.11731,1.1309.22361c.07679.013.14959.02908.22637.04212.45875.08122.92746.15542,1.40216.22461.12765.01905.25729.03509.38594.05314.365.05014.732.09727,1.104.14039.14659.017.2922.03409.43879.05013q.66567.07221,1.34132.12936l.15757.015c.50063.04111,1.00524.0742,1.51185.10228.14161.008.28223.015.42483.02206q.57443.02858,1.14885.04712c.15059.005.29918.01.44977.013.5086.012,1.01721.02106,1.52382.02106s1.01421-.009,1.52381-.02106c.15059-.003.29918-.008.44877-.013q.57592-.018,1.15084-.04712c.14162-.007.28223-.014.42384-.02206.50661-.02808,1.01222-.06117,1.51385-.10228.05086-.005.09972-.01.14959-.014q.68063-.05715,1.34929-.13136c.1466-.015.29021-.03209.43481-.04813q.56245-.06618,1.11294-.14239c.12566-.018.25231-.03309.378-.05214.47669-.06919.9474-.14339,1.40813-.22461.07081-.013.13962-.02808.21142-.04011q.58341-.1083,1.14685-.22662c.13164-.02808.26129-.05716.39093-.08624q.50712-.1128.99228-.23764c.10072-.02608.20444-.05014.30516-.07722.40788-.10929.80479-.2236,1.18674-.34494.07779-.02506.15059-.05113.22738-.0762.30317-.10028.59736-.20256.88058-.31085.10771-.04011.21342-.08223.31813-.12334.27125-.10829.53254-.2216.78185-.33792.06882-.03209.14261-.06217.21043-.09526.27624-.13336.54052-.27174.78584-.41513l-1.77712,13.2732a119.54764,119.54764,0,0,1-13.479-5.5722,2.08108,2.08108,0,1,0-2.07431,2.202,2.05912,2.05912,0,0,0,1.20769-.39308,101.37262,101.37262,0,0,0,14.07637,5.76573ZM388.26177,18.50547c10.34361,0,17.63161,3.22078,17.76723,5.00866l-.02592.20757a1.2467,1.2467,0,0,1-.09076.18851,1.27237,1.27237,0,0,1-.08177.15342,2.08551,2.08551,0,0,1-.16953.19353c-.04987.05214-.08976.10528-.1476.15843-.0718.06518-.16156.13035-.24632.19553-.07181.05515-.13364.1093-.21342.16345-.09574.06517-.20942.13035-.31912.19553-.09175.05515-.17652.1113-.27924.16645-.11668.06318-.25231.12735-.38195.18952-.11568.05716-.22239.11331-.348.16946-.13862.06217-.29519.12234-.44578.18451-.13563.05515-.26527.1123-.41187.16745-.16056.06017-.33807.11933-.5096.17749-.15757.05415-.30616.1103-.47171.16344-.1795.05616-.376.11131-.56544.16746-.17852.05114-.34805.10529-.53454.15542-.19746.05415-.41087.10328-.6173.15442-.19846.05014-.38993.10228-.59836.14941-.21441.04813-.44677.09426-.67016.14038-.21741.04613-.42683.09326-.65221.13638-.24134.04612-.49763.08723-.748.13035-.22738.03911-.44677.08122-.68013.11732-.26527.04111-.54551.07621-.81975.11431-.23735.03209-.46672.06919-.71005.09827-.28522.0351-.5864.06317-.88159.09526-.24831.02607-.48865.05515-.74395.07922-.32312.02908-.66219.05013-.99527.0752-.24034.01705-.4737.03911-.72.05415-.37895.02306-.77287.0371-1.1648.05214-.21441.009-.42084.02307-.63825.02908q-.923.02707-1.88482.02808-.96336,0-1.88483-.02808c-.21042-.006-.41087-.02005-.61831-.02807-.3979-.01505-.7998-.03009-1.18474-.05315-.23536-.014-.45575-.0351-.68512-.05114-.34605-.02607-.69609-.04813-1.03117-.07821-.24034-.02306-.46772-.05014-.70208-.07521-.30915-.03309-.62428-.06217-.92346-.09927-.22838-.02707-.44279-.06217-.66617-.09225-.29021-.04011-.5854-.07721-.86363-.12033-.2194-.03409-.42384-.0732-.63626-.1093-.26427-.04612-.53652-.08924-.79182-.13837-.21342-.04112-.41088-.08624-.61631-.12835-.23635-.05014-.47969-.09727-.70606-.14841-.19647-.04512-.378-.09426-.56645-.14138-.2184-.05415-.44279-.1073-.64922-.16245-.17651-.04813-.33807-.10027-.50761-.1494-.19945-.05816-.40489-.11532-.59137-.17448-.15956-.05114-.30317-.10428-.45376-.15643-.17751-.06116-.362-.12233-.52755-.1835-.14061-.05415-.26427-.10829-.39691-.16144-.15458-.06417-.31713-.12634-.45974-.19152-.12166-.05415-.22638-.1093-.33907-.16445-.13263-.06417-.27125-.12935-.38993-.19353-.10172-.05515-.18449-.1103-.27624-.16444-.1097-.06618-.22538-.13136-.32212-.19754-.07878-.05415-.14161-.1083-.21142-.16245-.08476-.06517-.17651-.13135-.24732-.19653a2.12926,2.12926,0,0,1-.14759-.15843,2.0842,2.0842,0,0,1-.16954-.19353,1.042,1.042,0,0,1-.08177-.15342,1.01417,1.01417,0,0,1-.09075-.18851l-.02693-.20757c.13663-1.78788,7.42363-5.00866,17.76525-5.00866Zm22.207,22.2186c-.21142-1.14814-1.52681-2.36445-4.20745-3.90566l1.70532-12.73072v-.004l.04986-.38906a.95507.95507,0,0,0,.009-.13035c0-4.16236-10.41541-7.06427-19.76375-7.06427C378.91542,16.5,368.5,19.40191,368.5,23.56427a.95349.95349,0,0,0,.009.13035l.05086.38906v.004l4.20047,31.36655C372.892,59.12826,382.3101,60.5,388.26177,60.5a42.44334,42.44334,0,0,0,9.29249-.97366,20.40294,20.40294,0,0,0,2.903-.8814c2.1531-.85634,3.265-1.92926,3.30892-3.1907l1.72727-12.90419a12.60027,12.60027,0,0,0,2.51609.32288,2.61856,2.61856,0,0,0,2.07331-.67284,1.76782,1.76782,0,0,0,.38594-1.476Zm-32.34124.27274,2.58889-4.33883,2.5889,4.33883Zm7.80757,1.49608a1.00443,1.00443,0,0,0-.013-1.00975l-4.35106-7.28989a1.034,1.034,0,0,0-1.71031,0l-4.35006,7.28989a1.00626,1.00626,0,0,0-.013,1.01075.99564.99564,0,0,0,.86761.50839h8.70212a.99454.99454,0,0,0,.86762-.50939Zm9.13792,1.38377a2.95835,2.95835,0,1,1-2.918,2.95807,2.94158,2.94158,0,0,1,2.918-2.95807Zm0,7.92161a4.9638,4.9638,0,1,0-4.91252-4.96354,4.9436,4.9436,0,0,0,4.91252,4.96354Zm-15.00582,1.44694h4.8836V48.2526h-4.8836Zm5.88087-6.99908H379.069a.99973.99973,0,0,0-.99726,1.00273V54.248a.99909.99909,0,0,0,.99726,1.00273h6.87913a.99973.99973,0,0,0,.99726-1.00273V47.24886a1.00037,1.00037,0,0,0-.99726-1.00273Z" transform="translate(12.5)"/>
  </g>
  <g>
    <text class="am-diagram-icon-label" transform="translate(197.54 129.66)"><tspan x="0" y="0">Amazon CloudFront</tspan> <tspan x="19" y="12">Distribution</tspan></text>
    <path class="aws-diagram-aws-networking" d="M221.45737,96.16783l1.41393,1.41394-1.41393,1.41394-1.41394-1.41394Zm2.89486,2.89487,2.95987,2.95987-1.41394,1.41493-2.96086-2.96086Zm10.29654,0,1.41393,1.41394-2.95987,2.96086-1.41493-1.41493Zm2.89486-2.89487,1.41394,1.41394-1.41394,1.41394-1.41393-1.41394ZM230.5,103.79649l1.12095,1.12095-1.41393,1.41493a.99944.99944,0,0,1-1.41394,0l-1.41393-1.41493,1.12095-1.12095v-1.046H230.5Zm-1.9999-18.83515H230.5V81.4035h-1.9999Zm0,5.33676H230.5V86.74026h-1.9999Zm0,5.33676H230.5V92.077h-1.9999Zm0,5.33676H230.5V97.41378h-1.9999Zm0-21.347H230.5v-1.9999h-1.9999Zm1,32.87551A20.00009,20.00009,0,1,1,249.50009,92.5,20.0235,20.0235,0,0,1,229.5,112.50009ZM229.5,70.5a22,22,0,1,0,22,22,22.02413,22.02413,0,0,0-22-22Z" transform="translate(12.5)"/>
  </g>
  <g>
    <text class="am-diagram-icon-label" transform="translate(353.36 183.66)"><tspan x="0" y="0">Amazon API Gateway</tspan> <tspan x="29" y="12">Endpoint</tspan></text>
    <path class="aws-diagram-aws-appint" d="M391.409,147.455h1.908v-1.909h-1.908Zm-2.864,0h1.909v-1.909h-1.909Zm-2.863,0h1.909v-1.909h-1.909Zm17.136,6.048-6.59,5.799v-25.47l6.59,5.798Zm-6.374-22.077a2.26139,2.26139,0,0,0-1.702-.006l-.514.285v29.724l.514.285a1.54752,1.54752,0,0,0,.751.171,2.74536,2.74536,0,0,0,.951-.177l.148-.062,7.473-6.577a1.49345,1.49345,0,0,0,.753-1.285V139.349a1.495,1.495,0,0,0-.752-1.285l-7.474-6.576Zm-13.671,27.877-6.591-5.799V139.629l6.591-5.798Zm-.218-27.877-.148.062-7.475,6.577a1.49566,1.49566,0,0,0-.75,1.284v14.435a1.492,1.492,0,0,0,.751,1.284l7.474,6.578.148.062a2.73988,2.73988,0,0,0,.951.177,1.55667,1.55667,0,0,0,.75-.17l.517-.285V131.704l-.517-.285a2.27764,2.27764,0,0,0-1.701.007ZM409.5,154.784,397.784,166.5H381.215L369.5,154.784V138.216L381.215,126.5h16.569L409.5,138.216ZM398.612,124.5H380.387L367.5,137.388v18.224L380.387,168.5h18.225L411.5,155.612V137.388Z" transform="translate(12.5)"/>
  </g>
  <g>
    <text class="am-diagram-icon-label" transform="translate(533.34 183.66)"><tspan x="0" y="0">AWS Lambda</tspan> <tspan x="9" y="12">(Backend)</tspan></text>
    <path class="aws-diagram-aws-compute" d="M551.5,166.5a20,20,0,1,1,20-20,20.0227,20.0227,0,0,1-20,20Zm0-42a22,22,0,1,0,22,22,22.02471,22.02471,0,0,0-22-22Zm-6.769,33.25h-5.355l6.345-13.291,2.681,5.533Zm1.883-16.035a1.00125,1.00125,0,0,0-.9-.564h-.003a.99806.99806,0,0,0-.899.57l-7.923,16.598a.99977.99977,0,0,0,.902,1.431h7.573a1.00236,1.00236,0,0,0,.905-.572l4.146-8.763a1.00233,1.00233,0,0,0-.004-.864Zm17.011,16.035h-5.452l-9.912-21.297a1.00128,1.00128,0,0,0-.907-.578h-3.603l.004-4.125h7.22l9.864,21.295a1.00034,1.00034,0,0,0,.907.58h1.879Zm1-6.125h-2.24l-9.864-21.295a1.00287,1.00287,0,0,0-.908-.58h-8.857a1.00015,1.00015,0,0,0-1,.999l-.006,6.125a1.00037,1.00037,0,0,0,1,1.001h3.967l9.912,21.297a.99983.99983,0,0,0,.906.578h7.09a.99909.99909,0,0,0,1-1v-6.125a.99909.99909,0,0,0-1-1Z" transform="translate(12.5)"/>
  </g>
  <g>
    <text class="am-diagram-icon-label" transform="translate(201.98 277.66)"><tspan x="0" y="0">Amazon Route 53</tspan> <tspan x="11" y="12">Hosted Zone</tspan></text>
    <path class="aws-diagram-aws-networking" d="M239.32588,255.803a26.71986,26.71986,0,0,0-9.82538,4.21211,26.71837,26.71837,0,0,0-9.82638-4.21211c-2.27108-.40833-9.68195-2.22436-9.68195-8.42521a11.2347,11.2347,0,0,1,2.01608-6.07207,11.135,11.135,0,0,0,1.9842-5.81349,10.82961,10.82961,0,0,0-3.07591-7.324c1.12856-1.37575,3.5859-4.37983,4.94456-6.122a10.24755,10.24755,0,0,0,6.82817,2.91323,8.75513,8.75513,0,0,0,6.81123-3.25268,8.75079,8.75079,0,0,0,6.81123,3.25268,10.24285,10.24285,0,0,0,6.82617-2.91323c1.35866,1.74115,3.816,4.74623,4.94556,6.122a10.82966,10.82966,0,0,0-3.07691,7.324,11.14372,11.14372,0,0,0,1.98421,5.81349,11.23533,11.23533,0,0,1,2.01707,6.07207c0,6.20085-7.41087,8.01688-9.68195,8.42521m9.3891-15.50064a9.28509,9.28509,0,0,1-1.71626-4.81013,9.15887,9.15887,0,0,1,3.06894-6.46542l.78193-.634-.63948-.77773c-.05081-.0609-5.02426-6.103-6.16179-7.66346l-.71021-.9744-.82177.88156a8.72595,8.72595,0,0,1-6.20461,3.10392c-2.35375,0-4.20946-1.05627-6.02034-3.42739L229.5005,218.5l-.79089,1.03431c-1.81188,2.37112-3.66859,3.42839-6.02034,3.42839a8.72645,8.72645,0,0,1-6.20661-3.10392l-.82276-.88256-.70922.9764c-1.13553,1.55945-6.109,7.60156-6.15979,7.66246l-.64048.77773.78193.634a9.07082,9.07082,0,0,1,3.06794,6.46542,9.28379,9.28379,0,0,1-1.71526,4.81013A13.215,13.215,0,0,0,208,247.37775c0,5.23143,4.23237,9.11508,11.3225,10.391a25.32479,25.32479,0,0,1,9.57138,4.266l.60761.46524.60463-.46524a25.3243,25.3243,0,0,1,9.57238-4.266c7.08913-1.27591,11.3215-5.15956,11.3215-10.391a13.215,13.215,0,0,0-2.285-7.07543" transform="translate(12.5)"/>
  </g>
  <g>
    <text class="am-diagram-icon-label" transform="translate(364 277.66)">ACM Certificate</text>
    <path class="aws-diagram-aws-security" d="M394.60018,236.56541l-5.8335,6.1248a.99933.99933,0,0,1-1.44961,0l-2.91725-3.0614,1.44961-1.38053,2.19145,2.30055,5.10969-5.364Zm-8.47444,11.55984v5.7614l2.74-2.24149a1.00148,1.00148,0,0,1,1.26742,0l2.74,2.24149v-5.7614h2.00223V255.999a.99853.99853,0,0,1-.57164.904.98509.98509,0,0,1-.42948.09711,1.00084,1.00084,0,0,1-.6327-.22525l-3.74217-3.0614-3.74117,3.0614a1.0019,1.0019,0,0,1-1.63482-.77586v-7.87375Zm3.37376-2.75106a6.87364,6.87364,0,1,1,6.87366-6.87363,6.88133,6.88133,0,0,1-6.87366,6.87363Zm8.87588-6.87363a8.87588,8.87588,0,1,0-8.87588,8.87586,8.88558,8.88558,0,0,0,8.87588-8.87586Zm-28.87315-13.25073h39.94549v-3.24761H369.50223Zm41.94772.99911v-5.24783A1.0002,1.0002,0,0,0,410.44883,220H368.50111A1.0002,1.0002,0,0,0,367.5,221.00111v38.49778A1.0002,1.0002,0,0,0,368.50111,260.5h28.87316v-2.00222h-27.872V227.25206h39.94749l.046,31.24572H406.124V260.5h4.37488A.99979.99979,0,0,0,411.5,259.49689Z" transform="translate(12.5)"/>
  </g>
</svg>
